<?xml version="1.0" encoding="UTF-8"?>
<svg xmlns="http://www.w3.org/2000/svg" width="169" height="39.21" viewBox="0 0 169 39.21">
  <defs>
    <style>.a{fill:#444545;}</style>
  </defs>
  <title>Asset 1</title>
  <path class="a" d="M26.45,6.42l-.28-.06a5.33,5.33,0,0,0-1.05-.1A5.54,5.54,0,0,0,21,8V7.51a1.2,1.2,0,1,0-2.39,0V21A1.2,1.2,0,1,0,21,21V11.53a4.12,4.12,0,0,1,3.92-2.85A4.51,4.51,0,0,1,26,8.82l.43.06V8.74a1.2,1.2,0,0,0,.84-1.16A1.14,1.14,0,0,0,27,6.73,1.24,1.24,0,0,0,26.45,6.42Z"></path>
  <path class="a" d="M12.53,6.65h0a1.74,1.74,0,0,0,1.23-.53,1.69,1.69,0,0,0,.5-1.24,1.74,1.74,0,1,0-1.73,1.77Z"></path>
  <path class="a" d="M7.13,20.79v-.34h0v.34a7.26,7.26,0,0,0,0-14.51,7.26,7.26,0,0,0,0,14.51Zm4.94-7.25a5,5,0,0,1-4.94,5,5,5,0,0,1,0-10.08A5,5,0,0,1,12.07,13.54Z"></path>
  <path class="a" d="M8.56,21.79h0a8.71,8.71,0,0,0,0,17.42,8.71,8.71,0,0,0,0-17.42ZM2.15,30.5A6.48,6.48,0,0,1,8.56,24,6.53,6.53,0,0,1,8.56,37h0A6.48,6.48,0,0,1,2.15,30.5Z"></path>
  <path class="a" d="M92.35,6.11a6.39,6.39,0,0,0-4.76,1.77V1.21a1.22,1.22,0,0,0-.34-.85,1.2,1.2,0,0,0-2,.85V21a1.2,1.2,0,1,0,2.39,0V11.82A4.26,4.26,0,0,1,91.9,8.4c2.41,0,3.84,1.54,3.84,4.1V21a1.2,1.2,0,1,0,2.39,0V12.26C98.13,8.58,95.8,6.11,92.35,6.11Z"></path>
  <path class="a" d="M135.1,6.29h0A1.2,1.2,0,0,0,133.9,7.5v9.13a4.26,4.26,0,0,1-4.31,3.42c-2.41,0-3.85-1.53-3.85-4.1V7.5a1.2,1.2,0,1,0-2.39,0v8.69c0,3.68,2.32,6.16,5.78,6.16a6.37,6.37,0,0,0,4.76-1.78V21a1.19,1.19,0,1,0,2.38,0V7.5A1.2,1.2,0,0,0,135.1,6.29Z"></path>
  <path class="a" d="M147.48,13.23l-.11.33h0l.11-.33L146,12.72c-1.86-.67-2.24-1.46-2.24-2.52,0-1.24,1.17-1.8,2.33-1.8a2.53,2.53,0,0,1,2.5,1.6l.17.3.08,0a1.1,1.1,0,0,0,1.87-.8l.11,0-.14-.33a4.76,4.76,0,0,0-4.53-3c-2.76,0-4.83,1.74-4.83,4.06,0,1.51.63,3.53,3.64,4.62l1.37.49c2,.71,2.71,1.39,2.71,2.69,0,1.47-1.55,2.14-3,2.14a3.42,3.42,0,0,1-3.09-1.7,1.18,1.18,0,0,0-.24-.42l-.12-.23-.11,0a1.26,1.26,0,0,0-.66-.21,1.22,1.22,0,0,0-1.2,1.23v.08l-.1.06.13.28A5.7,5.7,0,0,0,146,22.4c3.6,0,5.48-2.24,5.48-4.46S150.17,14.21,147.48,13.23Z"></path>
  <path class="a" d="M167.91,18.37a1.12,1.12,0,0,0-.81-.35h0a1.05,1.05,0,0,0-.86.41,6.15,6.15,0,0,1-4.32,1.68,5.55,5.55,0,0,1-5.43-5.48H169v-.35c-.12-5.12-2.88-8.17-7.39-8.17A7.89,7.89,0,0,0,154,14.25a7.85,7.85,0,0,0,7.89,8.15,8.47,8.47,0,0,0,5.94-2.33l.25-.25,0,0a1.16,1.16,0,0,0,.17-.6A1.1,1.1,0,0,0,167.91,18.37Zm-1.53-6h-9.71a5.12,5.12,0,0,1,4.89-4V8.06h0V8.4A4.6,4.6,0,0,1,166.38,12.4Z"></path>
  <path class="a" d="M62.64,14.28c-.11-5-2.94-8.17-7.38-8.17a7.88,7.88,0,0,0-7.59,8.14,7.84,7.84,0,0,0,7.89,8.15,8.51,8.51,0,0,0,5.94-2.33l.25-.25,0,0a1.16,1.16,0,0,0-1-1.77,1.08,1.08,0,0,0-.86.41,6.13,6.13,0,0,1-4.31,1.68,5.56,5.56,0,0,1-5.44-5.48H62.65ZM50.32,12.4a5.11,5.11,0,0,1,4.88-4,4.61,4.61,0,0,1,4.83,4Z"></path>
  <path class="a" d="M44,14.28c-.11-5-2.94-8.17-7.38-8.17A7.89,7.89,0,0,0,29,14.25a7.84,7.84,0,0,0,7.89,8.15,8.42,8.42,0,0,0,5.81-2.22,1.17,1.17,0,0,0,.55-1,1.1,1.1,0,0,0-.33-.82,1.09,1.09,0,0,0-.82-.35,1.06,1.06,0,0,0-.52.13l0,0-.26.25a6.12,6.12,0,0,1-4.39,1.75,5.55,5.55,0,0,1-5.43-5.48H44ZM31.67,12.4a5.11,5.11,0,0,1,4.88-4,4.61,4.61,0,0,1,4.83,4Z"></path>
  <path class="a" d="M110.88,5.77v.35h0V5.77a8.41,8.41,0,1,0,8.27,8.41A8.35,8.35,0,0,0,110.87,5.77Zm0,2.52a5.89,5.89,0,1,1-5.77,5.89A5.84,5.84,0,0,1,110.87,8.29Z"></path>
  <path class="a" d="M73.92,6.11a6.39,6.39,0,0,0-4.76,1.77V7.5A1.21,1.21,0,0,0,68,6.29a1.24,1.24,0,0,0-.85.36,1.22,1.22,0,0,0-.34.85V21a1.2,1.2,0,1,0,2.39,0V11.82A4.25,4.25,0,0,1,73.47,8.4c2.41,0,3.84,1.54,3.84,4.1V21a1.19,1.19,0,1,0,2.38,0V12.26C79.69,8.58,77.37,6.11,73.92,6.11Z"></path>
</svg>
