<svg xmlns="http://www.w3.org/2000/svg" xmlns:xlink="http://www.w3.org/1999/xlink" width="229" height="35" viewBox="0 0 229 35">
  <defs>
    <polygon id="logo-a" points="0 35 228.295 35 228.295 0 0 0"/>
  </defs>
  <g fill="none" fill-rule="evenodd">
    <path fill="#FFF" d="M23.8636364,26.25 L20.4217751,26.25 L20.4217751,21.1593053 L17.7170791,21.1593053 L14.3640692,26.25 L10.3409091,26.25 L14.1630241,20.5682365 C12.1736569,19.8186817 10.8107672,18.204727 10.8107672,15.6367935 L10.8107672,15.5916211 C10.8107672,14.0917458 11.2798723,12.8407013 12.1518206,11.9548637 C13.1796352,10.9097745 14.7217336,10.3409091 16.7111008,10.3409091 L23.8636364,10.3409091 L23.8636364,26.25 Z M20.4217751,18.0684443 L20.4217751,13.500677 L17.0017502,13.500677 C15.3256217,13.500677 14.2970541,14.2732009 14.2970541,15.7730762 L14.2970541,15.8190142 C14.2970541,17.1588722 15.2586067,18.0684443 16.9347352,18.0684443 L20.4217751,18.0684443 Z"/>
    <polygon fill="#FFF" points="70 10.341 81.819 10.341 81.819 13.455 73.425 13.455 73.425 16.682 80.812 16.682 80.812 19.795 73.425 19.795 73.425 23.137 81.932 23.137 81.932 26.25 70 26.25"/>
    <polygon fill="#FFF" points="89.091 10.341 101.023 10.341 101.023 13.523 92.538 13.523 92.538 16.909 100.016 16.909 100.016 20.091 92.538 20.091 92.538 26.25 89.091 26.25"/>
    <polygon fill="#FFF" points="107.386 10.341 110.795 10.341 110.795 23.069 118.523 23.069 118.523 26.25 107.386 26.25"/>
    <polygon fill="#FFF" points="124.091 10.341 135.911 10.341 135.911 13.455 127.516 13.455 127.516 16.682 134.904 16.682 134.904 19.795 127.516 19.795 127.516 23.137 136.023 23.137 136.023 26.25 124.091 26.25"/>
    <polygon fill="#FFF" points="156.479 10.341 151.201 18.114 156.705 26.25 152.644 26.25 149.103 20.796 145.539 26.25 141.591 26.25 147.095 18.159 141.817 10.341 145.878 10.341 149.171 15.501 152.531 10.341"/>
    <mask id="logo-b" fill="#fff">
      <use xlink:href="#logo-a"/>
    </mask>
    <polygon fill="#FFF" points="162.273 26.25 165.455 26.25 165.455 10.341 162.273 10.341" mask="url(#logo-b)"/>
    <path fill="#FFF" d="M172.613636,18.7390393 L172.613636,18.6931818 C172.613636,14.1019967 176.138345,10.3409091 180.988222,10.3409091 C185.8381,10.3409091 189.318182,14.0561393 189.318182,18.6465471 L189.318182,18.6931818 C189.318182,23.2843669 185.792717,27.0454545 180.943596,27.0454545 C176.094475,27.0454545 172.613636,23.3310016 172.613636,18.7390393 M185.704221,18.7390393 L185.704221,18.6931818 C185.704221,15.9246358 183.727057,13.616996 180.943596,13.616996 C178.159379,13.616996 176.228353,15.8780011 176.228353,18.6465471 L176.228353,18.6931818 C176.228353,21.4617278 178.204762,23.7685904 180.988222,23.7685904 C183.772439,23.7685904 185.704221,21.5083625 185.704221,18.7390393" mask="url(#logo-b)"/>
    <polygon fill="#FFF" points="194.886 10.341 198.155 10.341 205.706 20.136 205.706 10.341 209.205 10.341 209.205 26.25 206.189 26.25 198.385 16.137 198.385 26.25 194.886 26.25" mask="url(#logo-b)"/>
    <path fill="#FFF" d="M2.51937565 32.4806244L32.4806244 32.4806244 32.4806244 2.51937565 2.51937565 2.51937565 2.51937565 32.4806244zM0 35L35 35 35 0 0 0 0 35zM215.568182 23.7749051L217.658566 21.3675497C219.105814 22.516887 220.621942 23.2448999 222.460025 23.2448999 223.907274 23.2448999 224.780266 22.6933073 224.780266 21.7858966L224.780266 21.742722C224.780266 20.880719 224.229228 20.4392961 221.541371 19.7767895 218.301701 18.9810372 216.211317 18.1182899 216.211317 15.0476835L216.211317 15.0030201C216.211317 12.1966719 218.554776 10.3409091 221.840108 10.3409091 224.182793 10.3409091 226.181853 11.0473347 227.813296 12.3083304L225.975214 14.8712632C224.550409 13.9206779 223.149596 13.3452648 221.793672 13.3452648 220.438521 13.3452648 219.726506 13.9430095 219.726506 14.6940985L219.726506 14.7380175C219.726506 15.7548534 220.415303 16.0853623 223.195258 16.770945 226.457372 17.5882846 228.295455 18.7152902 228.295455 21.4114687L228.295455 21.4561321C228.295455 24.5267385 225.859898 26.25 222.391145 26.25 219.956363 26.25 217.497588 25.4334048 215.568182 23.7749051M50.1136364 10.3409091L57.2661719 10.3409091C59.2555391 10.3409091 60.7976375 10.9097745 61.8254522 11.9548637 62.6974004 12.8407013 63.1672585 14.0909802 63.1672585 15.5916211L63.1672585 15.6367935C63.1672585 18.204727 61.8036158 19.8186817 59.8142486 20.5682365L63.6363636 26.25 59.6132036 26.25 56.2601937 21.1593053 53.5554976 21.1593053 53.5554976 26.25 50.1136364 26.25 50.1136364 10.3409091zM57.0425375 18.0684443C58.718666 18.0684443 59.6802186 17.1588722 59.6802186 15.8182485L59.6802186 15.7730762C59.6802186 14.2732009 58.651651 13.500677 56.9755225 13.500677L53.5554976 13.500677 53.5554976 18.0684443 57.0425375 18.0684443z" mask="url(#logo-b)"/>
  </g>
</svg>
